<svg width="24" height="24" viewBox="0 0 24 24" fill="none" xmlns="http://www.w3.org/2000/svg">
<g clip-path="url(#clip0_2_4)">
<path d="M23.5446 7.48618L12.5759 0.173684C12.2015 -0.0567066 11.8019 -0.0588159 11.4241 0.173684L0.455344 7.48618C0.174094 7.67364 0 8.00851 0 8.34329V15.6557C0 15.9906 0.174094 16.3254 0.455391 16.5129L11.4241 23.8264C11.7985 24.0568 12.1981 24.0589 12.5759 23.8264L23.5447 16.5129C23.8259 16.3254 24 15.9906 24 15.6557V8.34329C24 8.00851 23.8259 7.67364 23.5446 7.48618ZM13.0312 2.95932L21.1072 8.34329L17.5045 10.754L13.0312 7.76739V2.95932ZM10.9688 2.95932V7.76739L6.49552 10.754L2.89284 8.34329L10.9688 2.95932ZM2.0625 10.2719L4.64733 11.9995L2.0625 13.7272V10.2719ZM10.9688 21.0398L2.89284 15.6558L6.49552 13.2451L10.9688 16.2317V21.0398ZM12 14.437L8.35711 11.9995L12 9.56204L15.6429 11.9995L12 14.437ZM13.0312 21.0398V16.2317L17.5045 13.2451L21.1072 15.6558L13.0312 21.0398ZM21.9375 13.7272L19.3527 11.9995L21.9375 10.2719V13.7272Z" fill="white"/>
</g>
<defs>
<clipPath id="clip0_2_4">
<rect width="24" height="24" fill="white"/>
</clipPath>
</defs>
</svg>
