<svg width="24" height="24" viewBox="0 0 24 24" fill="none" xmlns="http://www.w3.org/2000/svg">
<rect y="5" width="23.9837" height="14.7239" rx="2.20859" fill="white"/>
<path d="M7.31041 10.1767C7.31041 9.83802 7.60979 9.56441 7.98035 9.56441H14.6797H16.0196C17.4998 9.56441 18.6994 10.6607 18.6994 12.0134C18.6994 13.3661 17.4998 14.4624 16.0196 14.4624H15.3497C15.3497 15.4765 14.4494 16.2992 13.3399 16.2992H9.32023C8.21064 16.2992 7.31041 15.4765 7.31041 14.4624V10.1767ZM15.3497 13.2379H16.0196C16.7586 13.2379 17.3595 12.6888 17.3595 12.0134C17.3595 11.338 16.7586 10.7889 16.0196 10.7889H15.3497V13.2379ZM5.97054 16.9115H16.6896C17.0601 16.9115 17.3595 17.1851 17.3595 17.5237C17.3595 17.8624 17.0601 18.136 16.6896 18.136H5.97054C5.59998 18.136 5.3006 17.8624 5.3006 17.5237C5.3006 17.1851 5.59998 16.9115 5.97054 16.9115Z" fill="#3F3F3F"/>
<path d="M0 8.23926C0 7.27926 0 6.79925 0.146694 6.4171C0.371008 5.83274 0.832742 5.37101 1.4171 5.14669C1.79925 5 2.27926 5 3.23926 5H20.7607C21.7207 5 22.2007 5 22.5829 5.14669C23.1673 5.37101 23.629 5.83274 23.8533 6.4171C24 6.79925 24 7.27926 24 8.23926H0Z" fill="#3F3F3F"/>
<circle cx="1.76687" cy="6.61963" r="0.736196" fill="white"/>
<circle cx="3.97545" cy="6.61963" r="0.736196" fill="white"/>
<circle cx="6.18404" cy="6.61963" r="0.736196" fill="white"/>
</svg>
