<svg width="511" height="110" viewBox="0 0 511 110" fill="none" xmlns="http://www.w3.org/2000/svg">
<path d="M215.288 32.072V40.84H203.384V77H192.44V40.84H180.536V32.072H215.288ZM254.444 58.568C254.444 59.592 254.381 60.6587 254.253 61.768H229.485C229.655 63.9867 230.359 65.6933 231.597 66.888C232.877 68.04 234.434 68.616 236.269 68.616C238.999 68.616 240.898 67.464 241.965 65.16H253.613C253.015 67.5067 251.927 69.6187 250.349 71.496C248.813 73.3733 246.871 74.8453 244.525 75.912C242.178 76.9787 239.554 77.512 236.653 77.512C233.154 77.512 230.039 76.7653 227.309 75.272C224.578 73.7787 222.445 71.6453 220.909 68.872C219.373 66.0987 218.605 62.856 218.605 59.144C218.605 55.432 219.351 52.1893 220.845 49.416C222.381 46.6427 224.514 44.5093 227.245 43.016C229.975 41.5227 233.111 40.776 236.653 40.776C240.109 40.776 243.181 41.5013 245.869 42.952C248.557 44.4027 250.647 46.472 252.141 49.16C253.677 51.848 254.444 54.984 254.444 58.568ZM243.245 55.688C243.245 53.8107 242.605 52.3173 241.325 51.208C240.045 50.0987 238.445 49.544 236.525 49.544C234.69 49.544 233.133 50.0773 231.853 51.144C230.615 52.2107 229.847 53.7253 229.549 55.688H243.245ZM258.042 59.144C258.042 55.432 258.789 52.1893 260.282 49.416C261.818 46.6427 263.93 44.5093 266.618 43.016C269.349 41.5227 272.463 40.776 275.962 40.776C280.442 40.776 284.175 41.9493 287.162 44.296C290.191 46.6427 292.175 49.9493 293.114 54.216H281.466C280.485 51.4853 278.586 50.12 275.77 50.12C273.765 50.12 272.165 50.9093 270.97 52.488C269.775 54.024 269.178 56.2427 269.178 59.144C269.178 62.0453 269.775 64.2853 270.97 65.864C272.165 67.4 273.765 68.168 275.77 68.168C278.586 68.168 280.485 66.8027 281.466 64.072H293.114C292.175 68.2533 290.191 71.5387 287.162 73.928C284.133 76.3173 280.399 77.512 275.962 77.512C272.463 77.512 269.349 76.7653 266.618 75.272C263.93 73.7787 261.818 71.6453 260.282 68.872C258.789 66.0987 258.042 62.856 258.042 59.144ZM320.92 40.904C325.016 40.904 328.301 42.2693 330.776 45C333.251 47.688 334.488 51.4 334.488 56.136V77H323.608V57.608C323.608 55.2187 322.989 53.3627 321.752 52.04C320.515 50.7173 318.851 50.056 316.76 50.056C314.669 50.056 313.005 50.7173 311.768 52.04C310.531 53.3627 309.912 55.2187 309.912 57.608V77H298.968V29.64H309.912V46.088C311.021 44.5093 312.536 43.2507 314.456 42.312C316.376 41.3733 318.531 40.904 320.92 40.904ZM353.037 68.552H367.373V77H342.093V32.072H353.037V68.552ZM388.849 77.512C385.35 77.512 382.193 76.7653 379.377 75.272C376.604 73.7787 374.406 71.6453 372.785 68.872C371.206 66.0987 370.417 62.856 370.417 59.144C370.417 55.4747 371.228 52.2533 372.849 49.48C374.47 46.664 376.689 44.5093 379.505 43.016C382.321 41.5227 385.478 40.776 388.977 40.776C392.476 40.776 395.633 41.5227 398.449 43.016C401.265 44.5093 403.484 46.664 405.105 49.48C406.726 52.2533 407.537 55.4747 407.537 59.144C407.537 62.8133 406.705 66.056 405.041 68.872C403.42 71.6453 401.18 73.7787 398.321 75.272C395.505 76.7653 392.348 77.512 388.849 77.512ZM388.849 68.04C390.94 68.04 392.71 67.272 394.161 65.736C395.654 64.2 396.401 62.0027 396.401 59.144C396.401 56.2853 395.676 54.088 394.225 52.552C392.817 51.016 391.068 50.248 388.977 50.248C386.844 50.248 385.073 51.016 383.665 52.552C382.257 54.0453 381.553 56.2427 381.553 59.144C381.553 62.0027 382.236 64.2 383.601 65.736C385.009 67.272 386.758 68.04 388.849 68.04ZM426.911 40.776C429.428 40.776 431.626 41.288 433.503 42.312C435.423 43.336 436.895 44.68 437.919 46.344V41.288H448.863V76.936C448.863 80.2213 448.202 83.1867 446.879 85.832C445.599 88.52 443.615 90.6533 440.927 92.232C438.282 93.8107 434.975 94.6 431.007 94.6C425.716 94.6 421.428 93.3413 418.143 90.824C414.858 88.3493 412.98 84.9787 412.511 80.712H423.327C423.668 82.0773 424.479 83.144 425.759 83.912C427.039 84.7227 428.618 85.128 430.495 85.128C432.756 85.128 434.548 84.4667 435.871 83.144C437.236 81.864 437.919 79.7947 437.919 76.936V71.88C436.852 73.544 435.38 74.9093 433.503 75.976C431.626 77 429.428 77.512 426.911 77.512C423.967 77.512 421.3 76.7653 418.911 75.272C416.522 73.736 414.623 71.5813 413.215 68.808C411.85 65.992 411.167 62.7493 411.167 59.08C411.167 55.4107 411.85 52.1893 413.215 49.416C414.623 46.6427 416.522 44.5093 418.911 43.016C421.3 41.5227 423.967 40.776 426.911 40.776ZM437.919 59.144C437.919 56.4133 437.151 54.2587 435.615 52.68C434.122 51.1013 432.287 50.312 430.111 50.312C427.935 50.312 426.079 51.1013 424.543 52.68C423.05 54.216 422.303 56.3493 422.303 59.08C422.303 61.8107 423.05 63.9867 424.543 65.608C426.079 67.1867 427.935 67.976 430.111 67.976C432.287 67.976 434.122 67.1867 435.615 65.608C437.151 64.0293 437.919 61.8747 437.919 59.144ZM462.285 37.576C460.365 37.576 458.786 37.0213 457.549 35.912C456.354 34.76 455.757 33.352 455.757 31.688C455.757 29.9813 456.354 28.5733 457.549 27.464C458.786 26.312 460.365 25.736 462.285 25.736C464.162 25.736 465.698 26.312 466.893 27.464C468.13 28.5733 468.749 29.9813 468.749 31.688C468.749 33.352 468.13 34.76 466.893 35.912C465.698 37.0213 464.162 37.576 462.285 37.576ZM467.725 41.288V77H456.781V41.288H467.725ZM473.48 59.144C473.48 55.432 474.226 52.1893 475.72 49.416C477.256 46.6427 479.368 44.5093 482.056 43.016C484.786 41.5227 487.901 40.776 491.4 40.776C495.88 40.776 499.613 41.9493 502.6 44.296C505.629 46.6427 507.613 49.9493 508.552 54.216H496.904C495.922 51.4853 494.024 50.12 491.208 50.12C489.202 50.12 487.602 50.9093 486.408 52.488C485.213 54.024 484.616 56.2427 484.616 59.144C484.616 62.0453 485.213 64.2853 486.408 65.864C487.602 67.4 489.202 68.168 491.208 68.168C494.024 68.168 495.922 66.8027 496.904 64.072H508.552C507.613 68.2533 505.629 71.5387 502.6 73.928C499.57 76.3173 495.837 77.512 491.4 77.512C487.901 77.512 484.786 76.7653 482.056 75.272C479.368 73.7787 477.256 71.6453 475.72 68.872C474.226 66.0987 473.48 62.856 473.48 59.144Z" fill="white"/>
<rect y="5" width="162.889" height="100" rx="15" fill="white"/>
<path d="M49.65 40.1582C49.65 37.8582 51.6833 36 54.2 36H99.7H108.8C118.853 36 127 43.4458 127 52.6329C127 61.8199 118.853 69.2658 108.8 69.2658H104.25C104.25 76.1528 98.1359 81.7404 90.6 81.7404H63.3C55.7641 81.7404 49.65 76.1528 49.65 69.2658V40.1582ZM104.25 60.9493H108.8C113.819 60.9493 117.9 57.2199 117.9 52.6329C117.9 48.0458 113.819 44.3164 108.8 44.3164H104.25V60.9493ZM40.55 85.8986H113.35C115.867 85.8986 117.9 87.7568 117.9 90.0568C117.9 92.3569 115.867 94.2151 113.35 94.2151H40.55C38.0333 94.2151 36 92.3569 36 90.0568C36 87.7568 38.0333 85.8986 40.55 85.8986Z" fill="#3F3F3F"/>
<path d="M0 27C0 20.4799 0 17.2199 0.996294 14.6245C2.51976 10.6557 5.65571 7.51976 9.62448 5.99629C12.2199 5 15.4799 5 22 5H141C147.52 5 150.78 5 153.376 5.99629C157.344 7.51976 160.48 10.6557 162.004 14.6245C163 17.2199 163 20.4799 163 27V27H0V27Z" fill="#3F3F3F"/>
<circle cx="12" cy="16" r="5" fill="white"/>
<circle cx="27" cy="16" r="5" fill="white"/>
<circle cx="42" cy="16" r="5" fill="white"/>
</svg>
