<svg width="467" height="110" viewBox="0 0 467 110" fill="none" xmlns="http://www.w3.org/2000/svg">
<path d="M171.288 32.072V40.84H159.384V77H148.44V40.84H136.536V32.072H171.288ZM210.444 58.568C210.444 59.592 210.381 60.6587 210.253 61.768H185.485C185.655 63.9867 186.359 65.6933 187.597 66.888C188.877 68.04 190.434 68.616 192.269 68.616C194.999 68.616 196.898 67.464 197.965 65.16H209.613C209.015 67.5067 207.927 69.6187 206.349 71.496C204.813 73.3733 202.871 74.8453 200.525 75.912C198.178 76.9787 195.554 77.512 192.653 77.512C189.154 77.512 186.039 76.7653 183.309 75.272C180.578 73.7787 178.445 71.6453 176.909 68.872C175.373 66.0987 174.605 62.856 174.605 59.144C174.605 55.432 175.351 52.1893 176.845 49.416C178.381 46.6427 180.514 44.5093 183.245 43.016C185.975 41.5227 189.111 40.776 192.653 40.776C196.109 40.776 199.181 41.5013 201.869 42.952C204.557 44.4027 206.647 46.472 208.141 49.16C209.677 51.848 210.444 54.984 210.444 58.568ZM199.245 55.688C199.245 53.8107 198.605 52.3173 197.325 51.208C196.045 50.0987 194.445 49.544 192.525 49.544C190.69 49.544 189.133 50.0773 187.853 51.144C186.615 52.2107 185.847 53.7253 185.549 55.688H199.245ZM214.042 59.144C214.042 55.432 214.789 52.1893 216.282 49.416C217.818 46.6427 219.93 44.5093 222.618 43.016C225.349 41.5227 228.463 40.776 231.962 40.776C236.442 40.776 240.175 41.9493 243.162 44.296C246.191 46.6427 248.175 49.9493 249.114 54.216H237.466C236.485 51.4853 234.586 50.12 231.77 50.12C229.765 50.12 228.165 50.9093 226.97 52.488C225.775 54.024 225.178 56.2427 225.178 59.144C225.178 62.0453 225.775 64.2853 226.97 65.864C228.165 67.4 229.765 68.168 231.77 68.168C234.586 68.168 236.485 66.8027 237.466 64.072H249.114C248.175 68.2533 246.191 71.5387 243.162 73.928C240.133 76.3173 236.399 77.512 231.962 77.512C228.463 77.512 225.349 76.7653 222.618 75.272C219.93 73.7787 217.818 71.6453 216.282 68.872C214.789 66.0987 214.042 62.856 214.042 59.144ZM276.92 40.904C281.016 40.904 284.301 42.2693 286.776 45C289.251 47.688 290.488 51.4 290.488 56.136V77H279.608V57.608C279.608 55.2187 278.989 53.3627 277.752 52.04C276.515 50.7173 274.851 50.056 272.76 50.056C270.669 50.056 269.005 50.7173 267.768 52.04C266.531 53.3627 265.912 55.2187 265.912 57.608V77H254.968V29.64H265.912V46.088C267.021 44.5093 268.536 43.2507 270.456 42.312C272.376 41.3733 274.531 40.904 276.92 40.904ZM309.037 68.552H323.373V77H298.093V32.072H309.037V68.552ZM344.849 77.512C341.35 77.512 338.193 76.7653 335.377 75.272C332.604 73.7787 330.406 71.6453 328.785 68.872C327.206 66.0987 326.417 62.856 326.417 59.144C326.417 55.4747 327.228 52.2533 328.849 49.48C330.47 46.664 332.689 44.5093 335.505 43.016C338.321 41.5227 341.478 40.776 344.977 40.776C348.476 40.776 351.633 41.5227 354.449 43.016C357.265 44.5093 359.484 46.664 361.105 49.48C362.726 52.2533 363.537 55.4747 363.537 59.144C363.537 62.8133 362.705 66.056 361.041 68.872C359.42 71.6453 357.18 73.7787 354.321 75.272C351.505 76.7653 348.348 77.512 344.849 77.512ZM344.849 68.04C346.94 68.04 348.71 67.272 350.161 65.736C351.654 64.2 352.401 62.0027 352.401 59.144C352.401 56.2853 351.676 54.088 350.225 52.552C348.817 51.016 347.068 50.248 344.977 50.248C342.844 50.248 341.073 51.016 339.665 52.552C338.257 54.0453 337.553 56.2427 337.553 59.144C337.553 62.0027 338.236 64.2 339.601 65.736C341.009 67.272 342.758 68.04 344.849 68.04ZM382.911 40.776C385.428 40.776 387.626 41.288 389.503 42.312C391.423 43.336 392.895 44.68 393.919 46.344V41.288H404.863V76.936C404.863 80.2213 404.202 83.1867 402.879 85.832C401.599 88.52 399.615 90.6533 396.927 92.232C394.282 93.8107 390.975 94.6 387.007 94.6C381.716 94.6 377.428 93.3413 374.143 90.824C370.858 88.3493 368.98 84.9787 368.511 80.712H379.327C379.668 82.0773 380.479 83.144 381.759 83.912C383.039 84.7227 384.618 85.128 386.495 85.128C388.756 85.128 390.548 84.4667 391.871 83.144C393.236 81.864 393.919 79.7947 393.919 76.936V71.88C392.852 73.544 391.38 74.9093 389.503 75.976C387.626 77 385.428 77.512 382.911 77.512C379.967 77.512 377.3 76.7653 374.911 75.272C372.522 73.736 370.623 71.5813 369.215 68.808C367.85 65.992 367.167 62.7493 367.167 59.08C367.167 55.4107 367.85 52.1893 369.215 49.416C370.623 46.6427 372.522 44.5093 374.911 43.016C377.3 41.5227 379.967 40.776 382.911 40.776ZM393.919 59.144C393.919 56.4133 393.151 54.2587 391.615 52.68C390.122 51.1013 388.287 50.312 386.111 50.312C383.935 50.312 382.079 51.1013 380.543 52.68C379.05 54.216 378.303 56.3493 378.303 59.08C378.303 61.8107 379.05 63.9867 380.543 65.608C382.079 67.1867 383.935 67.976 386.111 67.976C388.287 67.976 390.122 67.1867 391.615 65.608C393.151 64.0293 393.919 61.8747 393.919 59.144ZM418.285 37.576C416.365 37.576 414.786 37.0213 413.549 35.912C412.354 34.76 411.757 33.352 411.757 31.688C411.757 29.9813 412.354 28.5733 413.549 27.464C414.786 26.312 416.365 25.736 418.285 25.736C420.162 25.736 421.698 26.312 422.893 27.464C424.13 28.5733 424.749 29.9813 424.749 31.688C424.749 33.352 424.13 34.76 422.893 35.912C421.698 37.0213 420.162 37.576 418.285 37.576ZM423.725 41.288V77H412.781V41.288H423.725ZM429.48 59.144C429.48 55.432 430.226 52.1893 431.72 49.416C433.256 46.6427 435.368 44.5093 438.056 43.016C440.786 41.5227 443.901 40.776 447.4 40.776C451.88 40.776 455.613 41.9493 458.6 44.296C461.629 46.6427 463.613 49.9493 464.552 54.216H452.904C451.922 51.4853 450.024 50.12 447.208 50.12C445.202 50.12 443.602 50.9093 442.408 52.488C441.213 54.024 440.616 56.2427 440.616 59.144C440.616 62.0453 441.213 64.2853 442.408 65.864C443.602 67.4 445.202 68.168 447.208 68.168C450.024 68.168 451.922 66.8027 452.904 64.072H464.552C463.613 68.2533 461.629 71.5387 458.6 73.928C455.57 76.3173 451.837 77.512 447.4 77.512C443.901 77.512 440.786 76.7653 438.056 75.272C435.368 73.7787 433.256 71.6453 431.72 68.872C430.226 66.0987 429.48 62.856 429.48 59.144Z" fill="white"/>
<g clip-path="url(#clip0_1_5)">
<path d="M107.913 34.3116L57.6394 0.795948C55.9234 -0.260009 54.0921 -0.269677 52.3604 0.795948L2.08699 34.3116C0.79793 35.1707 0 36.7056 0 38.24V71.7554C0 73.29 0.79793 74.8247 2.08721 75.684L52.3606 109.204C54.0766 110.26 55.9079 110.27 57.6396 109.204L107.913 75.684C109.202 74.8249 110 73.29 110 71.7554V38.24C110 36.7056 109.202 35.1707 107.913 34.3116ZM59.7266 13.5635L96.7411 38.24L80.2289 49.2892L59.7266 35.6004V13.5635ZM50.2734 13.5635V35.6004L29.7711 49.2892L13.2589 38.24L50.2734 13.5635ZM9.45312 47.0793L21.3003 54.9978L9.45312 62.9163V47.0793ZM50.2734 96.4321L13.2589 71.7556L29.7711 60.7064L50.2734 74.3952V96.4321ZM55 66.1697L38.3034 54.9978L55 43.8259L71.6966 54.9978L55 66.1697ZM59.7266 96.4321V74.3952L80.2289 60.7064L96.7411 71.7556L59.7266 96.4321ZM100.547 62.9163L88.6997 54.9978L100.547 47.0793V62.9163Z" fill="white"/>
</g>
<defs>
<clipPath id="clip0_1_5">
<rect width="110" height="110" fill="white"/>
</clipPath>
</defs>
</svg>
